<?xml version="1.0" standalone="no"?>
<!DOCTYPE svg PUBLIC "-//W3C//DTD SVG 20010904//EN"
 "http://www.w3.org/TR/2001/REC-SVG-20010904/DTD/svg10.dtd">
<svg version="1.0" xmlns="http://www.w3.org/2000/svg"
 width="512.000000pt" height="512.000000pt" viewBox="0 0 512.000000 512.000000"
 preserveAspectRatio="xMidYMid meet">

<g transform="translate(0.000000,512.000000) scale(0.100000,-0.100000)"
fill="#000000" stroke="none">
<path d="M2370 5114 c-19 -2 -78 -9 -130 -15 -298 -34 -649 -147 -914 -295
-783 -437 -1275 -1225 -1322 -2117 l-7 -127 149 0 150 0 12 163 c40 530 254
1014 619 1397 669 704 1727 899 2601 479 222 -106 391 -220 566 -382 l95 -88
-18 -42 c-79 -185 -37 -397 107 -541 239 -239 639 -173 789 131 95 192 58 410
-96 564 -137 136 -320 179 -506 117 l-62 -20 -69 67 c-382 368 -875 608 -1414
690 -100 15 -473 28 -550 19z m2350 -1053 c103 -53 130 -200 53 -292 -123
-146 -365 -39 -339 149 18 136 161 207 286 143z"/>
<path d="M1958 3603 l-598 -346 0 -697 0 -697 600 -347 600 -346 600 346 600
346 0 698 0 698 -599 346 c-330 190 -601 346 -603 345 -2 0 -272 -156 -600
-346z m972 -213 c200 -115 367 -213 371 -217 10 -10 -726 -436 -746 -431 -29
6 -743 423 -737 430 9 10 735 428 743 428 3 0 169 -94 369 -210z m-885 -705
l365 -210 0 -433 c0 -280 -3 -432 -10 -430 -5 2 -174 98 -375 213 l-365 210 0
433 c0 280 3 432 10 430 5 -1 174 -97 375 -213z m1415 -217 l0 -433 -369 -212
c-202 -117 -371 -213 -375 -213 -3 0 -6 195 -6 433 l1 432 367 212 c202 116
370 212 375 212 4 1 7 -194 7 -431z"/>
<path d="M4812 2398 c-60 -807 -528 -1503 -1253 -1862 -847 -421 -1867 -266
-2554 387 -85 81 -89 86 -76 108 51 86 72 236 47 343 -90 382 -555 517 -833
241 -84 -84 -143 -225 -143 -342 0 -337 335 -579 656 -473 l35 12 92 -91 c193
-190 389 -327 652 -456 503 -248 1046 -322 1600 -220 1027 191 1851 1014 2039
2039 26 138 46 322 46 419 l0 57 -148 0 -148 0 -12 -162z m-4205 -974 c46 -37
83 -105 83 -154 0 -20 -12 -60 -26 -88 -84 -169 -335 -126 -360 60 -8 57 9
109 49 155 44 50 80 64 154 60 52 -2 69 -8 100 -33z"/>
</g>
</svg>
